<svg id="Calque_2" data-name="Calque 2" xmlns="http://www.w3.org/2000/svg" 
viewBox="0 0 60.89 69.42"><defs><style>.cls-1,.cls-2{fill:none;stroke:#467cbf;stroke-linejoin:round;stroke-width:5px;}.cls-1{stroke-linecap:round;}</style></defs><title>icon_theft</title><path class="cls-1" d="M35.4,16.15C35.5,4,40.06,3,43,2.57c4.25-.61,7.62,3,8.89,4.48,1.62,1.85,4.24,4.74,5.83,11.83C60,29.5,55.82,31,55.82,42.16H48.06"/><path class="cls-1" d="M44.39,50.41H56v9.05a7.49,7.49,0,0,1-7.46,7.46H45.3a7.49,7.49,0,0,1-7.46-7.46V56.7"/><path class="cls-2" d="M40.58,36.38A15.58,15.58,0,1,1,25,20.8,15.57,15.57,0,0,1,40.58,36.38Z"/><path class="cls-1" d="M17.09,38.88A10.42,10.42,0,0,1,27.5,28.46"/><line class="cls-1" x1="14.22" y1="47.69" x2="2.5" y2="58.08"/></svg>