<svg id="Layer_1" data-name="Layer 1" xmlns="http://www.w3.org/2000/svg"
 viewBox="0 0 309.98 310"><defs><style>.cls-1{fill:#467cbf;}</style></defs><title>icon_vehicle-values</title><g id="NewGroupe0"><g id="NewGroup67-0"><path class="cls-1" d="M222.18,74.47a12.11,12.11,0,1,0,12.11,12.11A12.11,12.11,0,0,0,222.18,74.47Zm0,48.44a36.33,36.33,0,1,1,36.33-36.33,36.34,36.34,0,0,1-36.33,36.33ZM191.05,24.22A46.49,46.49,0,0,0,157.93,38L27.74,168.4a12.13,12.13,0,0,0,0,17.11l96.58,96.72a12,12,0,0,0,8.55,3.55h0a12.06,12.06,0,0,0,8.56-3.54L272,151.78a46.46,46.46,0,0,0,13.73-33.11V36.33a12.12,12.12,0,0,0-12.11-12.11ZM132.88,310h0a36.08,36.08,0,0,1-25.68-10.66L10.59,202.62a36.39,36.39,0,0,1,0-51.33L140.79,20.85A70.55,70.55,0,0,1,191.05,0h82.6A36.37,36.37,0,0,1,310,36.33v82.34a70.56,70.56,0,0,1-20.83,50.25L158.55,299.38A36.1,36.1,0,0,1,132.88,310Z"/></g></g></svg>