<svg id="Layer_1" data-name="Layer 1" xmlns="http://www.w3.org/2000/svg" 
viewBox="0 0 47.79 57.84"><defs><style>.cls-1{fill:#467cbf;}</style></defs>
<title>icon_junk-salvage-loss</title><path class="cls-1" d="M39.48,52.7a1.76,1.76,0,0,1-1.7,1.64H11.05a1.92,1.92,0,0,1-1.81-1.71L7,15.93H3.51L5.75,52.85a5.39,5.39,0,0,0,5.3,5H37.78a5.27,5.27,0,0,0,5.2-5l1.45-36.91h-3.5Z"/>
<rect class="cls-1" x="22.21" y="15.93" width="3.5" height="34.34"/><polygon class="cls-1" points="31.25 15.93 30.31 50.27 33.81 50.27 34.75 15.93 31.25 15.93"/>
<polygon class="cls-1" points="16.89 15.93 13.39 15.93 14.36 50.27 17.86 50.27 16.89 15.93"/>
<path class="cls-1" d="M46,8.47H34.63V5a5,5,0,0,0-5-5H18.16a5,5,0,0,0-5,5V8.47H1.75a1.75,1.75,0,0,0,0,3.5H46a1.75,1.75,0,0,0,0-3.5ZM16.66,5a1.52,1.52,0,0,1,1.5-1.5H29.63A1.52,1.52,0,0,1,31.13,5V8.47H16.66Z"/></svg>