<svg id="Layer_1" data-name="Layer 1" xmlns="http://www.w3.org/2000/svg" 
viewBox="0 0 21.12 25.22"><defs><style>.cls-1{fill:#467cbf;stroke:#467cbf;stroke-miterlimit:10;stroke-width:0.5px;fill-rule:evenodd;}</style></defs><title>icon_warranty</title><path class="cls-1" d="M10.31,23.13c1.59-.76,8.79-4.51,8.79-10.24V5.24c-3.93-.38-6.25-.62-8.79-3.34-2.54,2.72-4.86,3-8.79,3.34v7.65c0,5.73,7.21,9.48,8.79,10.24ZM20.62,12.89c0,7.43-10,11.76-10,11.77a.76.76,0,0,1-.61,0S0,20.32,0,12.89V4.56H0A.76.76,0,0,1,.69,3.8l.61-.06c3.88-.37,6-.59,8.43-3.46l.1-.11a.76.76,0,0,1,1.06.1c2.4,2.88,4.55,3.09,8.41,3.47l.58.06a.76.76,0,0,1,.74.76Z" transform="translate(0.25 0.25)"/><path class="cls-1" d="M6.14,12.85a.76.76,0,0,1,1.07-1.07l2.12,2.11L14,9.22a.76.76,0,0,1,1.08,1.07L9.86,15.5a.75.75,0,0,1-1.07,0L6.14,12.85Z" transform="translate(0.25 0.25)"/></svg>