<svg xmlns="http://www.w3.org/2000/svg" viewBox="0 0 250.38 230"><defs>
<style>.cls-1{fill:#467cbf;}</style></defs><title>icon_dashboard</title><g id="Layer_1_Image" data-name="Layer 1 Image"><path class="cls-1" d="M250.38,153.65c-2,10.24-3.42,20.64-6.23,30.65-2.25,8.07-6.19,15.67-9.61,24l-19.93-11.42c13.67-26.23,17.17-53.26,8.25-81.4a100.47,100.47,0,0,0-37.27-51.82A102.12,102.12,0,0,0,59,68C26.38,95.36,8.94,145.86,35.37,196.92L16.32,208A106.81,106.81,0,0,1,2.66,172.57c-7.35-38.65.39-74,25.27-104.7,18.94-23.38,43.39-38.51,73.32-43.93,18-3.26,36-3.2,53.9,1.51,46.09,12.12,75.49,41.57,90.07,86.34,2.25,6.9,2.83,14.34,4.18,21.53.33,1.77.65,3.55,1,5.33Z"/></g><g id="Layer_3" data-name="Layer 3"><circle class="cls-1" cx="125.19" cy="145.16" r="18.6"/><path class="cls-1" d="M129.86,145.63a8,8,0,0,1-6.68-12.39l29-44.18a8,8,0,0,1,13.38,8.77l-29,44.19A8,8,0,0,1,129.86,145.63Z"/></g></svg>