<svg id="Layer_1" data-name="Layer 1" xmlns="http://www.w3.org/2000/svg" 
viewBox="0 0 67.71 67.71"><defs><style>.cls-1{fill:#467cbf;}.cls-2,.cls-3,.cls-4{fill:none;stroke-miterlimit:10;}.cls-2,.cls-4{stroke:#467cbf;stroke-width:6px;}.cls-2{stroke-dasharray:5 5 5;}.cls-3{stroke:#6b6b6b;stroke-width:5px;}</style></defs><title>icon_open-lien</title><path class="cls-1" d="M34.18,39.18a3.23,3.23,0,0,0-.8-2.29,7.2,7.2,0,0,0-2.72-1.57,31.67,31.67,0,0,1-3.3-1.44A10.08,10.08,0,0,1,25,32.25a6.69,6.69,0,0,1-1.55-2.17,7.26,7.26,0,0,1-.55-3,6.57,6.57,0,0,1,1.9-4.87,8,8,0,0,1,5-2.22V16.26h2.81v3.82a7.29,7.29,0,0,1,4.87,2.59,8.57,8.57,0,0,1,1.76,5.58H34.18a4.81,4.81,0,0,0-.87-3.15A2.88,2.88,0,0,0,31,24.05a2.94,2.94,0,0,0-2.23.82A3.1,3.1,0,0,0,28,27.13a2.94,2.94,0,0,0,.77,2.14,8.49,8.49,0,0,0,2.87,1.65,35.21,35.21,0,0,1,3.46,1.59,9.94,9.94,0,0,1,2.28,1.69,6.58,6.58,0,0,1,1.43,2.15,7.3,7.3,0,0,1,.49,2.8A6.57,6.57,0,0,1,37.4,44a8.21,8.21,0,0,1-5.14,2.2v3.5H29.47V46.22a8.46,8.46,0,0,1-5.58-2.56,8.24,8.24,0,0,1-2-5.78H27a4.67,4.67,0,0,0,1,3.21,3.63,3.63,0,0,0,2.86,1.12,3.45,3.45,0,0,0,2.44-.82A2.83,2.83,0,0,0,34.18,39.18Z" transform="translate(2.98 0.41)"/><circle class="cls-2" cx="33.86" cy="33.86" r="30.85"/><path class="cls-3" d="M4.82,50" transform="translate(2.98 0.41)"/><path class="cls-4" d="M29.94,2.61l.94,0a30.85,30.85,0,1,1-23.39,51" transform="translate(2.98 0.41)"/></svg>