<svg id="Rounded_Rectangle_1642" data-name="Rounded Rectangle 1642" xmlns="http://www.w3.org/2000/svg" 
viewBox="0 0 325.48 350"><defs><style>.cls-1{fill:#467cbf;}</style></defs><title>icon_other</title><g id="Rounded_Rectangle_1642-2" data-name="Rounded Rectangle 1642"><rect class="cls-1" x="110.54" y="153.84" width="113" height="41.76" rx="12.28"/><path class="cls-1" d="M266.53,250.87H122.82a12.28,12.28,0,0,0-12.28,12.28v16a12.28,12.28,0,0,0,12.28,12.28H266.53a12.28,12.28,0,0,0,12.28-12.28v-16A12.27,12.27,0,0,0,266.53,250.87Z"/><circle class="cls-1" cx="28.25" cy="174.72" r="28.25"/><circle class="cls-1" cx="28.25" cy="79.47" r="28.25"/><path class="cls-1" d="M313.21,56.81H122.82a12.28,12.28,0,0,0-12.28,12.28V87.51a12.28,12.28,0,0,0,12.28,12.28H313.2a12.28,12.28,0,0,0,12.28-12.28V69.09A12.27,12.27,0,0,0,313.21,56.81Z"/><circle class="cls-1" cx="28.25" cy="270.53" r="28.25"/></g></svg>