<svg id="Layer_1" data-name="Layer 1" xmlns="http://www.w3.org/2000/svg" 
viewBox="0 0 33.36 32.54"><defs><style>.cls-1{fill:#467cbf;}</style></defs><title>icon_recalls</title><path class="cls-1" d="M8.24,16.48A8.24,8.24,0,0,1,.61,5.14a1,1,0,1,1,1.85.76,6.23,6.23,0,1,0,5-3.85l3.4,3.4A1,1,0,0,1,9.44,6.86L4.82,2.24a1,1,0,0,1-.28-.91A1,1,0,0,1,5.15.6,8.24,8.24,0,1,1,8.24,16.48Z"/><path class="cls-1" d="M6.16,11.15a1,1,0,0,1-.71-1.71l4-4a1,1,0,0,1,1.42,0,1,1,0,0,1,0,1.41l-4,4A1,1,0,0,1,6.16,11.15Z"/><path class="cls-1" d="M6.16,11.15a1,1,0,0,1-.71-.3L.83,6.23a1,1,0,0,1,0-1.42,1,1,0,0,1,1.41,0L6.87,9.44a1,1,0,0,1-.71,1.71Z"/><path class="cls-1" d="M12,18.07a1,1,0,0,1-.71-.29L9.44,15.93a1,1,0,0,1,1.41-1.41l1.84,1.84a1,1,0,0,1,0,1.42A1,1,0,0,1,12,18.07Z"/><path class="cls-1" d="M27.94,32.53a4.56,4.56,0,0,1-3.25-1.35L11.28,17.78a1,1,0,0,1,0-1.42,1,1,0,0,1,1.41,0L26.1,29.77a2.6,2.6,0,1,0,3.67-3.67L14.52,10.85a1,1,0,0,1,0-1.42,1,1,0,0,1,1.41,0L31.19,24.69a4.6,4.6,0,0,1-3.25,7.84Z"/><path class="cls-1" d="M7.4,32.54a2,2,0,0,1-1.46-.6L2.35,28.35a2.06,2.06,0,0,1,0-2.91l6.24-6.23A1,1,0,1,1,10,20.62L3.77,26.86l3.58,3.67,8.89-8.81a1,1,0,0,1,1.41,0,1,1,0,0,1,0,1.41l-8.8,8.81a2,2,0,0,1-1.45.6Z"/><path class="cls-1" d="M28.31,10.37a4.26,4.26,0,0,1-2.95-1.44A4.28,4.28,0,0,1,23.92,6,3.57,3.57,0,0,1,25.1,3.43a1.12,1.12,0,0,1,.21-.17l3.88-2.19a1,1,0,0,1,1.2.16L33.06,3.9a1,1,0,0,1,.17,1.21L31,9a1.16,1.16,0,0,1-.16.21A3.62,3.62,0,0,1,28.31,10.37ZM26.43,4.93A1.61,1.61,0,0,0,25.92,6a2.56,2.56,0,0,0,.86,1.52,2.5,2.5,0,0,0,1.53.86,1.57,1.57,0,0,0,1.05-.51l1.75-3.08-1.6-1.6Z"/><path class="cls-1" d="M18.41,14.32A1,1,0,0,1,17.7,14a1,1,0,0,1,0-1.41l6.38-6.39A1,1,0,1,1,25.5,7.65L19.12,14A1,1,0,0,1,18.41,14.32Z"/><path class="cls-1" d="M20.9,16.82a1,1,0,0,1-.7-1.71l6.38-6.38A1,1,0,0,1,28,10.14l-6.38,6.38A1,1,0,0,1,20.9,16.82Z"/></svg>