<svg id="Layer_1" data-name="Layer 1" xmlns="http://www.w3.org/2000/svg" 
viewBox="0 0 61.7 71.82"><defs><style>.cls-1{fill:#467cbf;}.cls-2,.cls-3{fill:none;stroke:#467cbf;stroke-miterlimit:10;stroke-width:4px;}.cls-3{stroke-linecap:square;}</style></defs><title>icon_title1</title><path class="cls-1" d="M55.23,0H9.39A9.38,9.38,0,0,0,0,9.37v56a6.51,6.51,0,0,0,6.5,6.5H40.58a12.63,12.63,0,0,0,7.69-3l10-9a11.25,11.25,0,0,0,3.43-7.71V6.5A6.5,6.5,0,0,0,55.23,0ZM43.33,67.56H9.39a5.14,5.14,0,0,1-5.14-5.14V9.21a5,5,0,0,1,5-5h43.1A5.16,5.16,0,0,1,57.5,9.38V49.17a2.89,2.89,0,0,1-2.89,2.89H46.3A2.89,2.89,0,0,0,43.41,55"/><path class="cls-1" d="M12.09,31.27H24c1,0,1.53,1,1.53,2.22h0c0,1.23-.49,2.22-1.53,2.22H12.09c-1,0-1.53-1-1.53-2.22h0C10.56,32.26,11.05,31.27,12.09,31.27Z"/><path class="cls-1" d="M12.91,11.52H36.09c1.94,0,2.35,1,2.35,2.23h0C38.44,15,38,16,36.09,16H12.91c-1.94,0-2.35-1-2.35-2.23h0C10.56,12.52,11,11.52,12.91,11.52Z"/><path class="cls-1" d="M12.91,21.27H48.59c1.94,0,2.35,1,2.35,2.23h0c0,1.23-.41,2.23-2.35,2.23H12.91c-1.94,0-2.35-1-2.35-2.23h0C10.56,22.27,11,21.27,12.91,21.27Z"/><circle class="cls-2" cx="20.55" cy="49.15" r="5.49"/><line class="cls-3" x1="18.5" y1="54.75" x2="16.96" y2="58.51"/><line class="cls-3" x1="22.25" y1="54.75" x2="23.79" y2="58.51"/></svg>